<mxfile host="Electron" agent="Mozilla/5.0 (Windows NT 10.0; Win64; x64) AppleWebKit/537.36 (KHTML, like Gecko) draw.io/24.7.8 Chrome/128.0.6613.36 Electron/32.0.1 Safari/537.36" version="24.7.8">
  <diagram name="Page-1" id="xJAmNHwFx4mG_RqCS-i0">
    <mxGraphModel dx="1461" dy="823" grid="1" gridSize="10" guides="1" tooltips="1" connect="1" arrows="1" fold="1" page="1" pageScale="1" pageWidth="850" pageHeight="1100" math="0" shadow="0">
      <root>
        <mxCell id="0" />
        <mxCell id="1" parent="0" />
        <mxCell id="Nd2QOEavinc-YCQNTstm-2" value="سسسس" style="rounded=0;whiteSpace=wrap;html=1;fillColor=#647687;fontColor=#ffffff;strokeColor=#314354;" parent="1" vertex="1">
          <mxGeometry x="90" y="20" width="900" height="610" as="geometry" />
        </mxCell>
        <mxCell id="NEInpnGG8kU-o5jwljfJ-3" value="&lt;b style=&quot;font-size: 14px;&quot;&gt;Classification&lt;/b&gt;" style="ellipse;whiteSpace=wrap;html=1;fillColor=#cce5ff;strokeColor=#36393d;fontSize=14;" parent="1" vertex="1">
          <mxGeometry x="800" y="40" width="120" height="80" as="geometry" />
        </mxCell>
        <mxCell id="NEInpnGG8kU-o5jwljfJ-4" value="&lt;b style=&quot;font-size: 14px;&quot;&gt;Path Determination&lt;/b&gt;" style="ellipse;whiteSpace=wrap;html=1;fillColor=#cce5ff;strokeColor=#36393d;fontSize=14;" parent="1" vertex="1">
          <mxGeometry x="800" y="245" width="120" height="80" as="geometry" />
        </mxCell>
        <mxCell id="JqFP9T0oPyawhL7kiyQ--22" style="edgeStyle=orthogonalEdgeStyle;rounded=0;orthogonalLoop=1;jettySize=auto;html=1;exitX=0;exitY=0.5;exitDx=0;exitDy=0;entryX=0.342;entryY=0.975;entryDx=0;entryDy=0;entryPerimeter=0;" edge="1" parent="1" source="NEInpnGG8kU-o5jwljfJ-5" target="NEInpnGG8kU-o5jwljfJ-5">
          <mxGeometry relative="1" as="geometry">
            <mxPoint x="840" y="630" as="targetPoint" />
            <Array as="points">
              <mxPoint x="750" y="510" />
              <mxPoint x="750" y="580" />
              <mxPoint x="841" y="580" />
            </Array>
          </mxGeometry>
        </mxCell>
        <mxCell id="NEInpnGG8kU-o5jwljfJ-5" value="&lt;div&gt;&lt;b style=&quot;font-size: 14px;&quot;&gt;Interception&lt;/b&gt;&lt;/div&gt;&lt;div&gt;&lt;b style=&quot;font-size: 14px;&quot;&gt;&amp;amp; Alert&lt;/b&gt;&lt;/div&gt;" style="ellipse;whiteSpace=wrap;html=1;fillColor=#cce5ff;strokeColor=#36393d;fontSize=14;" parent="1" vertex="1">
          <mxGeometry x="800" y="470" width="120" height="80" as="geometry" />
        </mxCell>
        <mxCell id="NEInpnGG8kU-o5jwljfJ-7" value="" style="endArrow=classic;html=1;rounded=0;entryX=0;entryY=0.5;entryDx=0;entryDy=0;exitX=1;exitY=0.5;exitDx=0;exitDy=0;" parent="1" source="JqFP9T0oPyawhL7kiyQ--3" target="NEInpnGG8kU-o5jwljfJ-3" edge="1">
          <mxGeometry width="50" height="50" relative="1" as="geometry">
            <mxPoint x="370" y="130" as="sourcePoint" />
            <mxPoint x="425" y="75" as="targetPoint" />
          </mxGeometry>
        </mxCell>
        <mxCell id="NEInpnGG8kU-o5jwljfJ-1" value="&lt;b style=&quot;font-size: 14px;&quot;&gt;Heat Detection&lt;/b&gt;" style="ellipse;whiteSpace=wrap;html=1;fillColor=#cce5ff;strokeColor=#36393d;fontSize=14;" parent="1" vertex="1">
          <mxGeometry x="150" y="345" width="120" height="80" as="geometry" />
        </mxCell>
        <mxCell id="NEInpnGG8kU-o5jwljfJ-11" value="" style="endArrow=classic;html=1;rounded=0;exitX=0.5;exitY=1;exitDx=0;exitDy=0;" parent="1" source="NEInpnGG8kU-o5jwljfJ-4" target="NEInpnGG8kU-o5jwljfJ-5" edge="1">
          <mxGeometry width="50" height="50" relative="1" as="geometry">
            <mxPoint x="400" y="320" as="sourcePoint" />
            <mxPoint x="620" y="430" as="targetPoint" />
          </mxGeometry>
        </mxCell>
        <mxCell id="NEInpnGG8kU-o5jwljfJ-12" value="" style="endArrow=classic;html=1;rounded=0;entryX=0.5;entryY=0;entryDx=0;entryDy=0;exitX=0.5;exitY=1;exitDx=0;exitDy=0;" parent="1" source="NEInpnGG8kU-o5jwljfJ-3" target="NEInpnGG8kU-o5jwljfJ-4" edge="1">
          <mxGeometry width="50" height="50" relative="1" as="geometry">
            <mxPoint x="400" y="320" as="sourcePoint" />
            <mxPoint x="450" y="270" as="targetPoint" />
          </mxGeometry>
        </mxCell>
        <mxCell id="NEInpnGG8kU-o5jwljfJ-15" value="Object Detected" style="text;html=1;align=center;verticalAlign=middle;whiteSpace=wrap;rounded=0;strokeWidth=1;fontSize=14;" parent="1" vertex="1">
          <mxGeometry x="490" y="40" width="60" height="30" as="geometry" />
        </mxCell>
        <mxCell id="NEInpnGG8kU-o5jwljfJ-16" value="Ally Object" style="text;html=1;align=center;verticalAlign=middle;whiteSpace=wrap;rounded=0;strokeWidth=1;fontSize=14;" parent="1" vertex="1">
          <mxGeometry x="600" y="230" width="70" height="30" as="geometry" />
        </mxCell>
        <mxCell id="NEInpnGG8kU-o5jwljfJ-17" value="Enemy Object" style="text;html=1;align=center;verticalAlign=middle;whiteSpace=wrap;rounded=0;strokeWidth=1;fontSize=14;" parent="1" vertex="1">
          <mxGeometry x="870" y="170" width="60" height="30" as="geometry" />
        </mxCell>
        <mxCell id="NEInpnGG8kU-o5jwljfJ-18" value="&lt;div style=&quot;font-size: 14px;&quot;&gt;Interception Needed&lt;/div&gt;" style="text;html=1;align=center;verticalAlign=middle;whiteSpace=wrap;rounded=0;strokeWidth=1;fontSize=14;" parent="1" vertex="1">
          <mxGeometry x="870" y="390" width="60" height="30" as="geometry" />
        </mxCell>
        <mxCell id="NEInpnGG8kU-o5jwljfJ-19" value="Interception Failed" style="text;html=1;align=center;verticalAlign=middle;whiteSpace=wrap;rounded=0;strokeWidth=1;fontSize=14;" parent="1" vertex="1">
          <mxGeometry x="770" y="590" width="60" height="30" as="geometry" />
        </mxCell>
        <mxCell id="NEInpnGG8kU-o5jwljfJ-20" value="Threat Neutralized" style="text;html=1;align=center;verticalAlign=middle;whiteSpace=wrap;rounded=0;strokeWidth=1;fontSize=14;" parent="1" vertex="1">
          <mxGeometry x="450" y="450" width="60" height="30" as="geometry" />
        </mxCell>
        <mxCell id="NEInpnGG8kU-o5jwljfJ-22" value="" style="endArrow=classic;html=1;rounded=0;exitX=0.5;exitY=1;exitDx=0;exitDy=0;entryX=0.981;entryY=0.371;entryDx=0;entryDy=0;entryPerimeter=0;" parent="1" source="NEInpnGG8kU-o5jwljfJ-3" target="NEInpnGG8kU-o5jwljfJ-1" edge="1">
          <mxGeometry width="50" height="50" relative="1" as="geometry">
            <mxPoint x="400" y="320" as="sourcePoint" />
            <mxPoint x="450" y="270" as="targetPoint" />
          </mxGeometry>
        </mxCell>
        <mxCell id="NEInpnGG8kU-o5jwljfJ-23" value="" style="endArrow=classic;html=1;rounded=0;exitX=0;exitY=0;exitDx=0;exitDy=0;entryX=1;entryY=1;entryDx=0;entryDy=0;" parent="1" source="NEInpnGG8kU-o5jwljfJ-5" target="NEInpnGG8kU-o5jwljfJ-1" edge="1">
          <mxGeometry width="50" height="50" relative="1" as="geometry">
            <mxPoint x="400" y="320" as="sourcePoint" />
            <mxPoint x="450" y="270" as="targetPoint" />
          </mxGeometry>
        </mxCell>
        <mxCell id="pLV8oC9Me60t7xmVpsVi-1" value="" style="endArrow=classic;html=1;rounded=0;exitX=0;exitY=0.5;exitDx=0;exitDy=0;entryX=1;entryY=0.5;entryDx=0;entryDy=0;" parent="1" source="NEInpnGG8kU-o5jwljfJ-4" target="NEInpnGG8kU-o5jwljfJ-1" edge="1">
          <mxGeometry width="50" height="50" relative="1" as="geometry">
            <mxPoint x="400" y="320" as="sourcePoint" />
            <mxPoint x="450" y="270" as="targetPoint" />
          </mxGeometry>
        </mxCell>
        <mxCell id="pLV8oC9Me60t7xmVpsVi-3" value="No Interception Needed" style="text;html=1;align=center;verticalAlign=middle;whiteSpace=wrap;rounded=0;strokeWidth=1;fontSize=14;rotation=0;" parent="1" vertex="1">
          <mxGeometry x="490" y="340" width="175" height="30" as="geometry" />
        </mxCell>
        <mxCell id="JqFP9T0oPyawhL7kiyQ--3" value="&lt;b style=&quot;font-size: 14px;&quot;&gt;GPS Detection&lt;/b&gt;" style="ellipse;whiteSpace=wrap;html=1;fillColor=#cce5ff;strokeColor=#36393d;fontSize=14;" vertex="1" parent="1">
          <mxGeometry x="150" y="40" width="120" height="80" as="geometry" />
        </mxCell>
        <mxCell id="JqFP9T0oPyawhL7kiyQ--8" value="" style="endArrow=classic;html=1;rounded=0;exitX=0.736;exitY=0.113;exitDx=0;exitDy=0;exitPerimeter=0;entryX=0.697;entryY=0.917;entryDx=0;entryDy=0;entryPerimeter=0;" edge="1" parent="1" source="NEInpnGG8kU-o5jwljfJ-1" target="JqFP9T0oPyawhL7kiyQ--3">
          <mxGeometry width="50" height="50" relative="1" as="geometry">
            <mxPoint x="400" y="420" as="sourcePoint" />
            <mxPoint x="450" y="370" as="targetPoint" />
            <Array as="points" />
          </mxGeometry>
        </mxCell>
        <mxCell id="JqFP9T0oPyawhL7kiyQ--9" value="" style="endArrow=classic;html=1;rounded=0;exitX=0;exitY=1;exitDx=0;exitDy=0;entryX=0;entryY=0;entryDx=0;entryDy=0;" edge="1" parent="1" source="JqFP9T0oPyawhL7kiyQ--3" target="NEInpnGG8kU-o5jwljfJ-1">
          <mxGeometry width="50" height="50" relative="1" as="geometry">
            <mxPoint x="90" y="200" as="sourcePoint" />
            <mxPoint x="140" y="150" as="targetPoint" />
          </mxGeometry>
        </mxCell>
        <mxCell id="JqFP9T0oPyawhL7kiyQ--10" value="All Times" style="text;html=1;align=center;verticalAlign=middle;resizable=0;points=[];autosize=1;strokeColor=none;fillColor=none;" vertex="1" parent="1">
          <mxGeometry x="230" y="245" width="70" height="30" as="geometry" />
        </mxCell>
        <mxCell id="JqFP9T0oPyawhL7kiyQ--11" value="No Detection" style="text;html=1;align=center;verticalAlign=middle;resizable=0;points=[];autosize=1;strokeColor=none;fillColor=none;" vertex="1" parent="1">
          <mxGeometry x="80" y="230" width="90" height="30" as="geometry" />
        </mxCell>
        <mxCell id="JqFP9T0oPyawhL7kiyQ--13" value="" style="endArrow=classic;html=1;rounded=0;exitX=0.764;exitY=0.113;exitDx=0;exitDy=0;exitPerimeter=0;" edge="1" parent="1" source="NEInpnGG8kU-o5jwljfJ-1" target="NEInpnGG8kU-o5jwljfJ-3">
          <mxGeometry width="50" height="50" relative="1" as="geometry">
            <mxPoint x="300" y="295" as="sourcePoint" />
            <mxPoint x="350" y="245" as="targetPoint" />
          </mxGeometry>
        </mxCell>
        <mxCell id="JqFP9T0oPyawhL7kiyQ--21" value="Object Detected" style="text;html=1;align=center;verticalAlign=middle;whiteSpace=wrap;rounded=0;strokeWidth=1;fontSize=14;" vertex="1" parent="1">
          <mxGeometry x="530" y="170" width="60" height="30" as="geometry" />
        </mxCell>
      </root>
    </mxGraphModel>
  </diagram>
</mxfile>
